<svg width="14" height="8" viewBox="0 0 14 8" fill="none" xmlns="http://www.w3.org/2000/svg">
<path fill-rule="evenodd" clip-rule="evenodd" d="M8.06232 7.54175C7.8748 7.72922 7.62049 7.83454 7.35532 7.83454C7.09016 7.83454 6.83585 7.72922 6.64832 7.54175L0.991324 1.88475C0.895813 1.7925 0.819631 1.68216 0.767222 1.56016C0.714813 1.43815 0.687227 1.30693 0.686073 1.17415C0.684919 1.04137 0.710221 0.909693 0.760502 0.786797C0.810783 0.663901 0.885036 0.552248 0.978929 0.458356C1.07282 0.364463 1.18447 0.29021 1.30737 0.239929C1.43027 0.189648 1.56195 0.164346 1.69472 0.1655C1.8275 0.166654 1.95872 0.19424 2.08073 0.246649C2.20273 0.299058 2.31308 0.37524 2.40532 0.47075L7.35532 5.42075L12.3053 0.47075C12.4939 0.288592 12.7465 0.187798 13.0087 0.190076C13.2709 0.192355 13.5217 0.297524 13.7071 0.482932C13.8925 0.66834 13.9977 0.919153 14 1.18135C14.0023 1.44355 13.9015 1.69615 13.7193 1.88475L8.06232 7.54175Z" fill="#020202"/>
</svg>
